<?xml version="1.0" encoding="utf-8"?>
<!-- Generator: Adobe Illustrator 24.1.1, SVG Export Plug-In . SVG Version: 6.00 Build 0)  -->
<svg version="1.1" id="레이어_1" xmlns="http://www.w3.org/2000/svg" xmlns:xlink="http://www.w3.org/1999/xlink" x="0px"
	 y="0px" viewBox="0 0 159.5 23.86" style="enable-background:new 0 0 159.5 23.86;" xml:space="preserve">
<style type="text/css">
	.st0{fill:none;}
	.st1{fill:#FFFFFF;}
	.st2{fill:#23ACE2;}
</style>
<g>
	<path class="st0" d="M136.56,15.3c-0.82,0.24-1.6,0.5-2.1,0.71c-2.02,0.81-2.62,1.88-2.62,3.03c0,1.55,0.92,2.21,2.11,2.21
		c0.78,0,1.31-0.3,2.61-1.23V15.3z"/>
	<path class="st0" d="M54.84,15.3c-0.82,0.24-1.6,0.5-2.1,0.71c-2.02,0.81-2.61,1.88-2.61,3.03c0,1.55,0.92,2.21,2.11,2.21
		c0.78,0,1.31-0.3,2.61-1.23V15.3z"/>
	<path class="st0" d="M120.84,9.68c-1.45,0-2.97,1.26-3.21,4.81h4.09c1.44,0,1.79-0.61,1.79-1.71
		C123.51,10.95,122.33,9.68,120.84,9.68z"/>
	<polygon class="st1" points="41.48,10.5 33.02,10.5 33.02,2.09 29.31,2.09 29.31,23.02 33.02,23.02 33.02,13.74 41.48,13.74 
		41.48,23.02 45.19,23.02 45.19,2.09 41.48,2.09 	"/>
	<path class="st1" d="M59.28,21.55c-0.56,0-0.89-0.38-0.89-1.35v-6.55c0-3.9-1.51-5.42-4.99-5.42c-3.67,0-5.99,1.55-6.35,3.94
		c0.15,0.87,0.75,1.35,1.69,1.35c0.99,0,1.7-0.65,1.87-2.09l0.35-1.65c0.48-0.08,0.89-0.11,1.26-0.11c1.95,0,2.62,0.75,2.62,3.55
		v0.85c-1.04,0.27-2.09,0.57-2.85,0.82c-4.33,1.4-5.37,2.83-5.37,4.74c0,2.48,1.72,3.79,3.98,3.79c1.9,0,2.88-0.8,4.37-2.31
		c0.34,1.41,1.38,2.25,2.97,2.25c1.43,0,2.37-0.51,3.09-1.9l-0.7-0.59C59.97,21.33,59.69,21.55,59.28,21.55z M52.23,21.25
		c-1.19,0-2.11-0.66-2.11-2.21c0-1.15,0.6-2.22,2.61-3.03c0.51-0.22,1.28-0.48,2.1-0.71v4.73C53.54,20.95,53.01,21.25,52.23,21.25z"
		/>
	<path class="st1" d="M75.92,16.72v-3.13c0-3.71-1.48-5.35-4.07-5.35c-1.81,0-3.54,0.88-5.1,2.63l-0.22-2.32l-0.48-0.31l-5.02,1.9
		v1.12l2.11,0.27c0.06,1.2,0.09,1.98,0.09,3.63v1.58c0,1.3-0.02,3.2-0.04,4.69l-1.93,0.38v1.23h1.89h3.79h1.73v-1.23l-1.77-0.36
		c-0.03-1.49-0.04-3.4-0.04-4.71v-4.47c1.18-1.01,2.3-1.5,3.37-1.5c1.49,0,2.09,0.79,2.09,3.14v2.84c0,1.34-0.01,3.22-0.04,4.69
		l-1.9,0.38v1.23h1.86h3.79h1.77v-1.23l-1.81-0.37C75.94,19.95,75.92,18.07,75.92,16.72z"/>
	<path class="st1" d="M86.1,14.3l-1.19-0.37c-2.05-0.68-2.65-1.23-2.65-2.31c0-1.17,0.93-1.87,2.52-1.87c0.72,0,1.3,0.13,1.87,0.38
		l0.54,2.5h1.96l0.16-3.16c-1.42-0.78-2.77-1.22-4.47-1.22c-3.69,0-5.72,2.08-5.72,4.54c0,2.15,1.37,3.51,3.63,4.25l1.5,0.49
		c1.93,0.64,2.66,1.27,2.66,2.39c0,1.29-1.01,2.03-3.03,2.03c-0.88,0-1.62-0.17-2.34-0.48l-0.54-2.76h-2.01l0.02,3.48
		c1.53,0.84,3.01,1.26,4.84,1.26c4.04,0,6.3-1.93,6.3-4.63C90.17,16.76,89.03,15.27,86.1,14.3z"/>
	<path class="st2" d="M99.71,21.06c-2.67,0-4.5-1.98-4.5-5.6c0-3.95,1.87-5.78,4.03-5.78c0.37,0,0.74,0.05,1.11,0.12l0.38,1.78
		c0.18,1.44,0.86,2.11,1.95,2.11c0.92,0,1.45-0.43,1.69-1.34c-0.3-2.31-2.52-4.12-5.45-4.12c-4.03,0-7.5,2.83-7.5,7.64
		c0,4.82,2.99,7.57,7.09,7.57c2.83,0,4.87-1.27,5.86-3.74l-0.88-0.65C102.59,20.3,101.3,21.06,99.71,21.06z"/>
	<path class="st2" d="M110.59,16.72V5.53l0.12-4.23l-0.45-0.27l-5.45,1.35v1.16l2.17,0.3v12.88c0,1.56-0.03,3.12-0.07,4.68
		l-2.03,0.39v1.23h2h3.79h2v-1.23l-2.03-0.38C110.62,19.85,110.59,18.28,110.59,16.72z"/>
	<path class="st2" d="M126.95,14.27c0-3.63-2.35-6.04-5.88-6.04c-3.8,0-7.29,2.88-7.29,7.68c0,4.7,2.86,7.53,7.06,7.53
		c2.82,0,4.86-1.25,6.02-3.49l-0.87-0.76c-0.99,1.09-2.15,1.87-3.91,1.87c-2.51,0-4.3-1.71-4.45-5.14h9.14
		C126.88,15.47,126.95,14.94,126.95,14.27z M121.72,14.49h-4.09c0.24-3.55,1.76-4.81,3.21-4.81c1.48,0,2.67,1.26,2.67,3.1
		C123.51,13.88,123.16,14.49,121.72,14.49z"/>
	<path class="st2" d="M140.99,21.55c-0.56,0-0.89-0.38-0.89-1.35v-6.55c0-3.9-1.51-5.42-4.99-5.42c-3.67,0-5.99,1.55-6.35,3.94
		c0.15,0.87,0.75,1.35,1.69,1.35c0.99,0,1.7-0.65,1.87-2.09l0.35-1.65c0.48-0.08,0.89-0.11,1.26-0.11c1.95,0,2.62,0.75,2.62,3.55
		v0.85c-1.04,0.27-2.09,0.57-2.86,0.82c-4.33,1.4-5.37,2.83-5.37,4.74c0,2.48,1.72,3.79,3.98,3.79c1.9,0,2.89-0.8,4.37-2.31
		c0.34,1.41,1.38,2.25,2.97,2.25c1.43,0,2.37-0.51,3.09-1.9l-0.7-0.59C141.69,21.33,141.41,21.55,140.99,21.55z M133.95,21.25
		c-1.19,0-2.11-0.66-2.11-2.21c0-1.15,0.6-2.22,2.62-3.03c0.51-0.22,1.28-0.48,2.1-0.71v4.73
		C135.26,20.95,134.73,21.25,133.95,21.25z"/>
	<path class="st2" d="M157.69,21.43c-0.03-1.48-0.04-3.36-0.04-4.71v-3.13c0-3.71-1.48-5.35-4.07-5.35c-1.81,0-3.54,0.88-5.1,2.63
		l-0.22-2.32l-0.48-0.31l-5.02,1.9v1.12l2.11,0.27c0.06,1.2,0.09,1.98,0.09,3.63v1.58c0,1.3-0.02,3.2-0.04,4.69l-1.93,0.38v1.23
		h1.89h3.79h1.72v-1.23l-1.77-0.36c-0.03-1.49-0.05-3.4-0.05-4.71v-4.47c1.18-1.01,2.3-1.5,3.37-1.5c1.49,0,2.09,0.79,2.09,3.14
		v2.84c0,1.34-0.02,3.22-0.04,4.69l-1.9,0.38v1.23h1.86h3.79h1.77v-1.23L157.69,21.43z"/>
</g>
<path class="st2" d="M23.92,11.9c0,6.61-5.35,11.96-11.96,11.96C5.35,23.86,0,18.51,0,11.9C0,5.68,4.74,0.57,10.81,0
	C9.03,3.43,5.77,10.01,5.77,12.49c0,3.42,2.77,6.19,6.19,6.19c3.42,0,6.19-2.77,6.19-6.19c0-2.48-3.26-9.06-5.04-12.49
	C19.18,0.57,23.92,5.68,23.92,11.9z"/>
</svg>
