<?xml version="1.0" encoding="utf-8"?>
<!-- Generator: Adobe Illustrator 24.1.1, SVG Export Plug-In . SVG Version: 6.00 Build 0)  -->
<svg version="1.1" id="레이어_1" xmlns="http://www.w3.org/2000/svg" xmlns:xlink="http://www.w3.org/1999/xlink" x="0px"
	 y="0px" viewBox="0 0 124 124" style="enable-background:new 0 0 124 124;" xml:space="preserve">
<style type="text/css">
	.st0{fill:#040000;}
</style>
<path class="st0" d="M47.15,34.02v48.2c0,0-2.82-0.97-6.76-0.21c-6.04,1.16-10.24,6.48-9.02,11.21c1.22,4.74,7.04,7.33,13,5.79
	c5.07-1.31,8.62-5.63,8.81-9.67V49.63l33.55-6.88l0.08,0.09v31.24c0,0-2.81-0.97-6.76-0.21c-6.04,1.16-10.24,6.48-9.02,11.21
	c1.22,4.74,7.04,7.33,13,5.79c5.07-1.31,8.62-5.63,8.81-9.67V49.55c0-2.27,0-5.08,0-8.05c0-5.96,0-12.6,0-16.94L47.15,34.02z"/>
</svg>
